HIERARCHY
ROOT Hips
{
	OFFSET 0.000000 0.000000 0.000000
	CHANNELS 6 Xposition Yposition Zposition Xrotation Yrotation Zrotation
	JOINT LeftUpLeg_virtual
	{
		OFFSET 0.000000 0.000000 0.000000
		CHANNELS 3 Xrotation Yrotation Zrotation
		JOINT LeftUpLeg
		{
			OFFSET 15.427100 -6.655098 0.678600
			CHANNELS 3 Xrotation Yrotation Zrotation
			JOINT LeftLeg
			{
				OFFSET 4.081073 -39.591068 13.024000
				CHANNELS 3 Xrotation Yrotation Zrotation
				JOINT LeftFoot
				{
					OFFSET -4.081074 -37.707932 -15.979700
					CHANNELS 3 Xrotation Yrotation Zrotation
					JOINT LeftToeBase
					{
						OFFSET 5.346399 -15.068900 20.645000
						CHANNELS 3 Xrotation Yrotation Zrotation
						JOINT LeftToe_End
						{
							OFFSET 2.754700 0.931300 11.300900
							CHANNELS 3 Xrotation Yrotation Zrotation
							End Site
							{
								OFFSET 0 0 0
							}
						}
					}
				}
			}
		}
	}
	JOINT RightUpLeg_virtual
	{
		OFFSET 0.000000 0.000000 0.000000
		CHANNELS 3 Xrotation Yrotation Zrotation
		JOINT RightUpLeg
		{
			OFFSET -15.569500 -6.655098 0.678600
			CHANNELS 3 Xrotation Yrotation Zrotation
			JOINT RightLeg
			{
				OFFSET -4.081825 -39.591045 13.023800
				CHANNELS 3 Xrotation Yrotation Zrotation
				JOINT RightFoot
				{
					OFFSET 4.081824 -37.707954 -15.979600
					CHANNELS 3 Xrotation Yrotation Zrotation
					JOINT RightToeBase
					{
						OFFSET -5.346400 -15.068900 20.645000
						CHANNELS 3 Xrotation Yrotation Zrotation
						JOINT RightToe_End
						{
							OFFSET -2.754700 0.931300 11.300900
							CHANNELS 3 Xrotation Yrotation Zrotation
							End Site
							{
								OFFSET 0 0 0
							}
						}
					}
				}
			}
		}
	}
	JOINT Spine_virtual
	{
		OFFSET 0.000000 0.000000 0.000000
		CHANNELS 3 Xrotation Yrotation Zrotation
		JOINT Spine
		{
			OFFSET -0.279200 12.230698 -2.892100
			CHANNELS 3 Xrotation Yrotation Zrotation
			JOINT Spine1
			{
				OFFSET -0.232667 10.192268 -1.242267
				CHANNELS 3 Xrotation Yrotation Zrotation
				JOINT Spine1_split
				{
					OFFSET -0.232667 10.192268 -1.242267
					CHANNELS 3 Xrotation Yrotation Zrotation
					JOINT Spine2
					{
						OFFSET -0.232667 10.192268 -1.242267
						CHANNELS 3 Xrotation Yrotation Zrotation
						JOINT Neck_virtual
						{
							OFFSET 0.000000 0.000000 0.000000
							CHANNELS 3 Xrotation Yrotation Zrotation
							JOINT Neck
							{
								OFFSET -0.418800 17.814194 8.416900
								CHANNELS 3 Xrotation Yrotation Zrotation
								JOINT Head
								{
									OFFSET 0.000000 7.031097 3.806800
									CHANNELS 3 Xrotation Yrotation Zrotation
									JOINT HeadTop_End
									{
										OFFSET 0.000000 24.646606 12.978600
										CHANNELS 3 Xrotation Yrotation Zrotation
										End Site
										{
											OFFSET 0 0 0
										}
									}
								}
							}
						}
						JOINT LeftShoulder_virtual
						{
							OFFSET 0.000000 0.000000 0.000000
							CHANNELS 3 Xrotation Yrotation Zrotation
							JOINT LeftShoulder
							{
								OFFSET 8.476499 7.247704 -3.868750
								CHANNELS 3 Xrotation Yrotation Zrotation
								JOINT LeftShoulder_split
								{
									OFFSET 8.476499 7.247704 -3.868750
									CHANNELS 3 Xrotation Yrotation Zrotation
									JOINT LeftArm
									{
										OFFSET 9.308998 -2.777710 0.208600
										CHANNELS 3 Xrotation Yrotation Zrotation
										JOINT LeftForeArm
										{
											OFFSET 29.972298 0.000000 0.000000
											CHANNELS 3 Xrotation Yrotation Zrotation
											JOINT LeftHand
											{
												OFFSET 26.026505 0.000000 0.000000
												CHANNELS 3 Xrotation Yrotation Zrotation
												End Site
												{
													OFFSET 0 0 0
												}
											}
										}
									}
								}
							}
						}
						JOINT RightShoulder_virtual
						{
							OFFSET 0.000000 0.000000 0.000000
							CHANNELS 3 Xrotation Yrotation Zrotation
							JOINT RightShoulder
							{
								OFFSET -7.570500 7.247704 -3.868750
								CHANNELS 3 Xrotation Yrotation Zrotation
								JOINT RightShoulder_split
								{
									OFFSET -7.570500 7.247704 -3.868750
									CHANNELS 3 Xrotation Yrotation Zrotation
									JOINT RightArm
									{
										OFFSET -9.308998 -2.777710 0.208500
										CHANNELS 3 Xrotation Yrotation Zrotation
										JOINT RightForeArm
										{
											OFFSET -29.972300 0.000000 0.000000
											CHANNELS 3 Xrotation Yrotation Zrotation
											JOINT RightHand
											{
												OFFSET -26.026505 0.000000 0.000000
												CHANNELS 3 Xrotation Yrotation Zrotation
												End Site
												{
													OFFSET 0 0 0
												}
											}
										}
									}
								}
							}
						}
					}
				}
			}
		}
	}
}
MOTION
Frames: 8
Frame Time: 0.03333333
4.852695 83.581528 38.706188 0.000000 0.000000 0.000000 7.802584 3.010262 0.844276 -28.250822 11.042392 16.843810 35.101271 -1.193221 3.479692 -10.795421 7.909497 -20.130628 1.195500 -4.075400 -1.920431 0.000000 0.000000 0.000000 8.553054 4.569313 0.715840 -30.749426 -3.308775 -6.331678 38.004730 7.487849 -4.392817 -13.021009 -16.079782 21.576422 7.663202 4.658311 -10.989803 0.000000 0.000000 0.000000 6.348280 8.974761 0.027452 8.885418 -4.554968 -2.741609 2.936125 -1.152058 0.965524 -0.076617 0.138454 -0.088861 0.000000 0.000000 0.000000 -1.273146 1.924393 0.186369 22.447109 19.520546 5.426324 -6.591226 44.662730 -17.658851 0.000000 0.000000 0.000000 4.444570 -1.420228 1.079557 9.153391 -12.705821 26.965507 -3.360760 -3.521969 0.565007 -39.003293 -12.167587 -7.511668 167.576465 -77.186130 168.254620 0.000000 0.000000 0.000000 2.959322 0.695630 1.181922 0.345182 2.057061 -14.456194 1.482737 -1.740545 11.823958 -31.501007 32.576181 16.861907 -169.620330 48.582504 172.841735 0.000000 0.000000 0.000000 
4.692982 85.942520 39.468346 0.000000 0.000000 0.000000 8.337935 3.147620 1.143492 -25.939315 11.865736 15.479432 29.941220 -0.885437 3.766831 -8.647357 8.255661 -20.038634 1.496930 -4.210672 -1.811057 0.000000 0.000000 0.000000 9.080783 4.842806 0.912510 -28.269518 -3.428095 -6.032914 33.207365 6.839266 -4.263973 -11.343301 -16.316461 21.457772 7.436799 4.718853 -10.065479 0.000000 0.000000 0.000000 7.232928 9.236790 0.128859 8.441981 -4.797692 -2.648167 2.054172 -1.332302 0.736001 -0.035826 0.147504 -0.077951 0.000000 0.000000 0.000000 -1.928968 1.763975 0.049209 21.375036 19.374919 5.460903 -4.778586 43.005320 -19.221559 0.000000 0.000000 0.000000 3.679927 -1.512576 1.041449 9.098480 -11.961848 26.809365 -3.744343 -3.908417 0.409556 -39.526704 -11.288744 -8.305232 166.971201 -76.747988 167.480227 0.000000 0.000000 0.000000 2.057070 0.425324 0.924512 0.527881 2.466960 -14.185575 1.908879 -2.331990 11.542122 -31.998463 32.263423 17.482173 -170.153276 48.699351 173.402698 0.000000 0.000000 0.000000 
4.553327 88.047150 40.118065 0.000000 0.000000 0.000000 8.803950 3.262947 1.425942 -23.916736 12.710540 14.341669 25.333153 -0.828181 3.992807 -6.552980 8.364935 -20.134597 1.481738 -4.318103 -1.737216 0.000000 0.000000 0.000000 9.473990 5.201208 1.087899 -25.951510 -3.676384 -5.866896 28.988911 6.300708 -4.143194 -9.965884 -16.354867 21.290955 7.358459 4.781561 -9.037094 0.000000 0.000000 0.000000 7.821671 9.564144 0.246993 8.214966 -5.005326 -2.497144 1.285792 -1.536009 0.530170 0.018733 0.169577 -0.075064 0.000000 0.000000 0.000000 -2.429082 1.558873 -0.052121 20.239577 19.225297 5.472377 -3.573913 41.637093 -20.382198 0.000000 0.000000 0.000000 3.027051 -1.618913 1.018533 8.995026 -11.011595 26.606589 -3.998473 -4.362060 0.399450 -39.511541 -10.953501 -8.976504 165.914652 -76.439188 166.205454 0.000000 0.000000 0.000000 1.264701 0.131868 0.679940 0.685441 2.955166 -13.784421 2.003608 -3.021619 10.892674 -32.940964 31.772578 18.613707 -170.819042 49.009981 174.156259 0.000000 0.000000 0.000000 
4.459688 89.696243 40.508785 0.000000 0.000000 0.000000 9.116283 3.456656 1.601284 -22.404048 13.606841 13.619259 21.663919 -0.951505 4.070364 -4.798013 8.264953 -20.337851 1.373795 -4.390040 -1.745816 0.000000 0.000000 0.000000 9.739283 5.633212 1.181213 -23.958055 -4.034880 -5.795231 25.509903 5.981598 -4.015153 -9.048756 -16.097742 21.089942 7.625799 4.820394 -8.072614 0.000000 0.000000 0.000000 8.090792 9.852420 0.348800 8.145911 -5.146817 -2.296402 0.675271 -1.728160 0.359500 0.062812 0.210651 -0.093636 0.000000 0.000000 0.000000 -2.721853 1.329716 -0.116275 19.180725 19.055722 5.551302 -2.734284 40.552544 -21.303522 0.000000 0.000000 0.000000 2.495915 -1.718618 1.015594 8.859864 -9.900006 26.433812 -4.157152 -4.881224 0.616982 -39.052785 -11.156872 -9.586155 165.011920 -75.960767 165.106272 0.000000 0.000000 0.000000 0.645663 -0.157255 0.465609 0.793379 3.394388 -13.325513 1.810938 -3.496196 10.060586 -34.142490 31.004940 20.178621 -171.579461 49.317360 175.050399 0.000000 0.000000 0.000000 
4.412356 90.809334 40.732536 0.000000 0.000000 0.000000 9.295052 3.647459 1.632364 -21.444320 14.503529 13.362959 19.048211 -1.169869 3.945825 -3.569026 7.988369 -20.589972 1.421905 -4.428830 -1.852270 0.000000 0.000000 0.000000 9.881921 5.987087 1.163760 -22.405138 -4.439246 -5.753187 22.881892 5.869071 -3.848626 -8.539351 -15.596652 20.880045 7.974896 4.847185 -7.288658 0.000000 0.000000 0.000000 8.050145 10.079433 0.414039 8.140895 -5.195444 -2.050638 0.217094 -1.897825 0.215319 0.094184 0.274740 -0.110385 0.000000 0.000000 0.000000 -2.800087 1.104741 -0.169056 18.317825 18.879435 5.793826 -2.020764 39.665012 -22.142100 0.000000 0.000000 0.000000 2.071182 -1.792486 1.006963 8.687573 -8.686712 26.197821 -4.135890 -5.557476 1.022130 -38.241946 -11.777473 -10.333398 164.702444 -75.062618 164.642571 0.000000 0.000000 0.000000 0.235379 -0.427806 0.270055 0.848733 3.661803 -12.896907 1.346218 -3.609002 9.296329 -35.138140 29.775148 21.949925 -172.363170 49.337649 176.028755 0.000000 0.000000 0.000000 
4.401102 91.433105 40.789345 0.000000 0.000000 0.000000 9.362705 3.792146 1.535591 -20.976001 15.344353 13.509361 17.423345 -1.378956 3.623123 -2.975748 7.633488 -20.714398 1.777044 -4.440477 -2.039699 0.000000 0.000000 0.000000 9.903157 6.299799 1.071670 -21.305250 -4.820602 -5.733020 21.100278 5.905103 -3.635574 -8.257286 -14.952662 20.671537 8.118628 4.860185 -6.754653 0.000000 0.000000 0.000000 7.808886 10.230606 0.434811 8.120506 -5.142885 -1.766525 -0.098551 -2.040944 0.073131 0.106308 0.318237 -0.114345 0.000000 0.000000 0.000000 -2.707375 0.897705 -0.245993 17.738877 18.695476 6.226392 -1.211462 38.827009 -22.999906 0.000000 0.000000 0.000000 1.710976 -1.842295 0.956839 8.491329 -7.490049 25.811442 -3.859168 -6.247365 1.548049 -37.029802 -12.664576 -11.437057 164.894072 -73.819578 164.730981 0.000000 0.000000 0.000000 -0.011313 -0.682839 0.074914 0.854959 3.674785 -12.586485 0.695978 -3.515956 8.662456 -35.377006 28.025268 23.644716 -173.078605 48.853266 176.987291 0.000000 0.000000 0.000000 
4.404982 91.693848 40.645157 0.000000 0.000000 0.000000 9.318151 3.796713 1.367190 -20.870241 16.026255 13.935750 16.589570 -1.546150 3.183792 -2.860430 7.223828 -20.635403 2.316809 -4.433339 -2.231668 0.000000 0.000000 0.000000 9.780555 6.490137 0.925138 -20.693615 -5.089608 -5.701287 20.129138 6.012625 -3.385515 -8.081561 -14.338719 20.454350 8.090261 4.832023 -6.467967 0.000000 0.000000 0.000000 7.511977 10.298601 0.422032 8.012503 -4.989576 -1.451092 -0.307826 -2.167718 -0.078748 0.101140 0.333930 -0.106434 0.000000 0.000000 0.000000 -2.548008 0.710040 -0.357588 17.411153 18.506215 6.841877 -0.313149 37.820182 -23.812034 0.000000 0.000000 0.000000 1.394677 -1.900105 0.835326 8.318905 -6.548675 25.185016 -3.346143 -6.900564 2.163941 -35.451052 -13.566888 -13.117480 165.001210 -72.638536 164.760214 0.000000 0.000000 0.000000 -0.118811 -0.909667 -0.126615 0.835731 3.458129 -12.441973 0.082980 -3.239979 8.185974 -34.489604 25.945080 25.178972 -173.633873 47.935046 177.819508 0.000000 0.000000 0.000000 
4.419176 91.702263 40.393192 0.000000 0.000000 0.000000 9.185658 3.725732 1.192954 -21.017689 16.469772 14.491792 16.412904 -1.670382 2.702555 -2.959835 6.742722 -20.362539 2.692635 -4.425016 -2.307661 0.000000 0.000000 0.000000 9.514601 6.630792 0.797916 -20.533217 -5.172355 -5.711414 19.898354 6.103977 -3.100754 -8.004868 -13.878395 20.120119 8.047280 4.765360 -6.365794 0.000000 0.000000 0.000000 7.179862 10.354776 0.408110 7.797623 -4.771532 -1.123633 -0.432080 -2.297157 -0.248283 0.088686 0.292082 -0.081539 0.000000 0.000000 0.000000 -2.359141 0.537554 -0.496508 17.283635 18.292220 7.583274 0.507098 36.441426 -24.483163 0.000000 0.000000 0.000000 1.118077 -1.977123 0.618413 8.200977 -6.036153 24.259862 -2.712606 -7.269756 2.670048 -33.316594 -14.315949 -15.459416 164.509273 -72.045887 164.199879 0.000000 0.000000 0.000000 -0.144566 -1.120650 -0.325687 0.826966 3.092405 -12.480356 -0.616203 -2.941264 7.722883 -32.242489 23.925919 26.625899 -173.957432 47.057391 178.450631 0.000000 0.000000 0.000000 
